# This file uses centimeters as units for non-parametric coordinates.

v -17.932665 15.599117 -25.183328
v -7.811905 -1.793088 13.445771
v 20.756751 4.268924 -11.737458
v 4.614410 48.689679 11.842451
vt 0.250000 0.250000
vt 0.500000 0.500000
vt 0.750000 0.250000
vt 0.375000 0.500000
vt 0.500000 0.500000
vt 0.625000 0.500000
vt 0.500000 1.000000
vt 0.000000 0.000000
vt 1.000000 0.000000
vt 0.000000 1.000000
vn 0.228797 -0.312736 -0.921872
vn 0.228797 -0.312736 -0.921872
vn -0.137462 -0.916171 -0.376478
vn -0.909201 0.234721 0.343889
vn -0.909201 0.234721 0.343889
vn -0.909201 0.234721 0.343889
vn 0.671349 -0.142151 0.727381
vn 0.671349 -0.142151 0.727381
vn 0.671349 -0.142151 0.727381
vn 0.412994 0.539552 -0.733702
f 1/1/1 3/3/2 2/2/3
f 1/4/4 2/5/5 4/7/6
f 2/5/7 3/6/8 4/7/9
f 4/8/10 3/9/2 1/10/1
